<?xml version="1.0" standalone="no"?>
<!DOCTYPE svg PUBLIC "-//W3C//DTD SVG 20010904//EN"
 "http://www.w3.org/TR/2001/REC-SVG-20010904/DTD/svg10.dtd">
<svg version="1.0" xmlns="http://www.w3.org/2000/svg"
 width="79.000000pt" height="79.000000pt" viewBox="0 0 79.000000 79.000000"
 preserveAspectRatio="xMidYMid meet">


<g transform="translate(0.000000,79.000000) scale(0.100000,-0.100000)"
fill="#818181" stroke="none">
<path d="M312 662 c-72 -26 -122 -69 -155 -133 -115 -225 86 -475 326 -405
193 56 267 287 144 448 -68 89 -206 128 -315 90z m171 -38 c26 -9 47 -18 47
-20 0 -3 -18 -41 -41 -85 -22 -45 -38 -83 -35 -86 3 -3 45 2 93 10 68 13 89
14 96 4 16 -23 0 -125 -27 -172 -25 -42 -82 -95 -102 -95 -6 0 -28 36 -49 81
-22 44 -43 83 -47 85 -4 3 -28 -36 -53 -86 -25 -49 -49 -90 -54 -90 -24 0 -97
70 -120 113 -31 61 -41 154 -17 163 9 3 53 1 97 -6 45 -6 83 -9 86 -7 2 3 -16
42 -41 87 l-45 81 32 13 c18 8 39 16 47 19 29 11 87 7 133 -9z"/>
</g>
</svg>
